{
    "asset" : {
        "generator" : "Khronos glTF Blender I/O v1.1.45",
        "version" : "2.0"
    },
    "scene" : 0,
    "scenes" : [
        {
            "name" : "Scene",
            "nodes" : [
                0,
                1,
                2
            ]
        }
    ],
    "nodes" : [
        {
            "mesh" : 0,
            "name" : "Spring",
            "scale" : [
                0.7884799242019653,
                0.7884799242019653,
                0.7884799242019653
            ],
            "translation" : [
                0,
                -0.3499999940395355,
                0
            ]
        },
        {
            "mesh" : 1,
            "name" : "Stand_U",
            "scale" : [
                1.0240000486373901,
                1.0240000486373901,
                1.0240000486373901
            ],
            "translation" : [
                0,
                0.43519526720046997,
                0
            ]
        },
        {
            "mesh" : 2,
            "name" : "Stand_D",
            "scale" : [
                1.0240000486373901,
                1.0240000486373901,
                1.0240000486373901
            ],
            "translation" : [
                0,
                -0.3532848358154297,
                0
            ]
        }
    ],
    "materials" : [
        {
            "doubleSided" : true,
            "emissiveFactor" : [
                0,
                0,
                0
            ],
            "name" : "Spring",
            "pbrMetallicRoughness" : {
                "baseColorFactor" : [
                    0.800000011920929,
                    0.800000011920929,
                    0.800000011920929,
                    1
                ],
                "metallicFactor" : 0.800000011920929,
                "roughnessFactor" : 0.30000001192092896
            }
        },
        {
            "doubleSided" : true,
            "emissiveFactor" : [
                0,
                0,
                0
            ],
            "name" : "stand",
            "pbrMetallicRoughness" : {
                "baseColorFactor" : [
                    0.10000000149011612,
                    0.18000000715255737,
                    0.8000000715255737,
                    1
                ],
                "metallicFactor" : 0,
                "roughnessFactor" : 0.5
            }
        }
    ],
    "meshes" : [
        {
            "name" : "Circle.002",
            "primitives" : [
                {
                    "attributes" : {
                        "POSITION" : 0,
                        "NORMAL" : 1,
                        "TEXCOORD_0" : 2
                    },
                    "indices" : 3,
                    "material" : 0
                }
            ]
        },
        {
            "name" : "Cylinder",
            "primitives" : [
                {
                    "attributes" : {
                        "POSITION" : 4,
                        "NORMAL" : 5,
                        "TEXCOORD_0" : 6
                    },
                    "indices" : 7,
                    "material" : 1
                }
            ]
        },
        {
            "name" : "Cylinder.001",
            "primitives" : [
                {
                    "attributes" : {
                        "POSITION" : 8,
                        "NORMAL" : 9,
                        "TEXCOORD_0" : 10
                    },
                    "indices" : 7,
                    "material" : 1
                }
            ]
        }
    ],
    "accessors" : [
        {
            "bufferView" : 0,
            "componentType" : 5126,
            "count" : 2210,
            "max" : [
                0.46400001645088196,
                1.0640000104904175,
                0.46400001645088196
            ],
            "min" : [
                -0.46400001645088196,
                -0.0639999657869339,
                -0.46400001645088196
            ],
            "type" : "VEC3"
        },
        {
            "bufferView" : 1,
            "componentType" : 5126,
            "count" : 2210,
            "type" : "VEC3"
        },
        {
            "bufferView" : 2,
            "componentType" : 5126,
            "count" : 2210,
            "type" : "VEC2"
        },
        {
            "bufferView" : 3,
            "componentType" : 5123,
            "count" : 12288,
            "type" : "SCALAR"
        },
        {
            "bufferView" : 4,
            "componentType" : 5126,
            "count" : 192,
            "max" : [
                0.5,
                0.05000000074505806,
                0.5
            ],
            "min" : [
                -0.5,
                -0.05000000074505806,
                -0.5
            ],
            "type" : "VEC3"
        },
        {
            "bufferView" : 5,
            "componentType" : 5126,
            "count" : 192,
            "type" : "VEC3"
        },
        {
            "bufferView" : 6,
            "componentType" : 5126,
            "count" : 192,
            "type" : "VEC2"
        },
        {
            "bufferView" : 7,
            "componentType" : 5123,
            "count" : 372,
            "type" : "SCALAR"
        },
        {
            "bufferView" : 8,
            "componentType" : 5126,
            "count" : 192,
            "max" : [
                0.5,
                0.05000000074505806,
                0.5
            ],
            "min" : [
                -0.5,
                -0.05000000074505806,
                -0.5
            ],
            "type" : "VEC3"
        },
        {
            "bufferView" : 9,
            "componentType" : 5126,
            "count" : 192,
            "type" : "VEC3"
        },
        {
            "bufferView" : 10,
            "componentType" : 5126,
            "count" : 192,
            "type" : "VEC2"
        }
    ],
    "bufferViews" : [
        {
            "buffer" : 0,
            "byteLength" : 26520,
            "byteOffset" : 0
        },
        {
            "buffer" : 0,
            "byteLength" : 26520,
            "byteOffset" : 26520
        },
        {
            "buffer" : 0,
            "byteLength" : 17680,
            "byteOffset" : 53040
        },
        {
            "buffer" : 0,
            "byteLength" : 24576,
            "byteOffset" : 70720
        },
        {
            "buffer" : 0,
            "byteLength" : 2304,
            "byteOffset" : 95296
        },
        {
            "buffer" : 0,
            "byteLength" : 2304,
            "byteOffset" : 97600
        },
        {
            "buffer" : 0,
            "byteLength" : 1536,
            "byteOffset" : 99904
        },
        {
            "buffer" : 0,
            "byteLength" : 744,
            "byteOffset" : 101440
        },
        {
            "buffer" : 0,
            "byteLength" : 2304,
            "byteOffset" : 102184
        },
        {
            "buffer" : 0,
            "byteLength" : 2304,
            "byteOffset" : 104488
        },
        {
            "buffer" : 0,
            "byteLength" : 1536,
            "byteOffset" : 106792
        }
    ],
    "buffers" : [
        {
            "byteLength" : 108328,
            "uri" : "PowerSpring.bin"
        }
    ]
}
