{
    "asset" : {
        "generator" : "Khronos glTF Blender I/O v1.1.45",
        "version" : "2.0"
    },
    "scene" : 0,
    "scenes" : [
        {
            "name" : "Scene",
            "nodes" : [
                0,
                1
            ]
        }
    ],
    "nodes" : [
        {
            "mesh" : 0,
            "name" : "Cylinder",
            "scale" : [
                0.30000001192092896,
                0.30000001192092896,
                0.30000001192092896
            ],
            "translation" : [
                0,
                0.30000001192092896,
                0
            ]
        },
        {
            "mesh" : 1,
            "name" : "Cube",
            "scale" : [
                0.6000000238418579,
                0.6000000238418579,
                0.6000000238418579
            ],
            "translation" : [
                0,
                1.2000000476837158,
                0
            ]
        }
    ],
    "materials" : [
        {
            "doubleSided" : true,
            "emissiveFactor" : [
                0,
                0,
                0
            ],
            "name" : "cannon",
            "pbrMetallicRoughness" : {
                "baseColorFactor" : [
                    0.5,
                    0.5,
                    0.5,
                    1
                ],
                "metallicFactor" : 0.7999999523162842,
                "roughnessFactor" : 0.30000001192092896
            }
        },
        {
            "doubleSided" : true,
            "emissiveFactor" : [
                0,
                0,
                0
            ],
            "name" : "Hole",
            "pbrMetallicRoughness" : {
                "baseColorTexture" : {
                    "index" : 0,
                    "texCoord" : 0
                },
                "metallicFactor" : 0.7999999523162842,
                "roughnessFactor" : 0.30000001192092896
            }
        }
    ],
    "meshes" : [
        {
            "name" : "Cylinder",
            "primitives" : [
                {
                    "attributes" : {
                        "POSITION" : 0,
                        "NORMAL" : 1,
                        "TEXCOORD_0" : 2
                    },
                    "indices" : 3,
                    "material" : 0
                }
            ]
        },
        {
            "name" : "Cube.001",
            "primitives" : [
                {
                    "attributes" : {
                        "POSITION" : 4,
                        "NORMAL" : 5,
                        "TEXCOORD_0" : 6
                    },
                    "indices" : 7,
                    "material" : 1
                }
            ]
        }
    ],
    "textures" : [
        {
            "source" : 0
        }
    ],
    "images" : [
        {
            "mimeType" : "image/png",
            "name" : "HoleBaseColor",
            "uri" : "HoleBaseColor.png"
        }
    ],
    "accessors" : [
        {
            "bufferView" : 0,
            "componentType" : 5126,
            "count" : 192,
            "max" : [
                1,
                1,
                1
            ],
            "min" : [
                -1,
                -1,
                -1
            ],
            "type" : "VEC3"
        },
        {
            "bufferView" : 1,
            "componentType" : 5126,
            "count" : 192,
            "type" : "VEC3"
        },
        {
            "bufferView" : 2,
            "componentType" : 5126,
            "count" : 192,
            "type" : "VEC2"
        },
        {
            "bufferView" : 3,
            "componentType" : 5123,
            "count" : 372,
            "type" : "SCALAR"
        },
        {
            "bufferView" : 4,
            "componentType" : 5126,
            "count" : 24,
            "max" : [
                1,
                1,
                1
            ],
            "min" : [
                -1,
                -1,
                -1
            ],
            "type" : "VEC3"
        },
        {
            "bufferView" : 5,
            "componentType" : 5126,
            "count" : 24,
            "type" : "VEC3"
        },
        {
            "bufferView" : 6,
            "componentType" : 5126,
            "count" : 24,
            "type" : "VEC2"
        },
        {
            "bufferView" : 7,
            "componentType" : 5123,
            "count" : 36,
            "type" : "SCALAR"
        }
    ],
    "bufferViews" : [
        {
            "buffer" : 0,
            "byteLength" : 2304,
            "byteOffset" : 0
        },
        {
            "buffer" : 0,
            "byteLength" : 2304,
            "byteOffset" : 2304
        },
        {
            "buffer" : 0,
            "byteLength" : 1536,
            "byteOffset" : 4608
        },
        {
            "buffer" : 0,
            "byteLength" : 744,
            "byteOffset" : 6144
        },
        {
            "buffer" : 0,
            "byteLength" : 288,
            "byteOffset" : 6888
        },
        {
            "buffer" : 0,
            "byteLength" : 288,
            "byteOffset" : 7176
        },
        {
            "buffer" : 0,
            "byteLength" : 192,
            "byteOffset" : 7464
        },
        {
            "buffer" : 0,
            "byteLength" : 72,
            "byteOffset" : 7656
        }
    ],
    "buffers" : [
        {
            "byteLength" : 7728,
            "uri" : "Cannon.bin"
        }
    ]
}
