{
    "asset" : {
        "generator" : "Khronos glTF Blender I/O v1.1.45",
        "version" : "2.0"
    },
    "scene" : 0,
    "scenes" : [
        {
            "name" : "Scene",
            "nodes" : [
                0,
                1,
                2
            ]
        }
    ],
    "nodes" : [
        {
            "name" : "Light",
            "rotation" : [
                0.16907575726509094,
                0.7558803558349609,
                -0.27217137813568115,
                0.570947527885437
            ],
            "translation" : [
                4.076245307922363,
                5.903861999511719,
                -1.0054539442062378
            ]
        },
        {
            "name" : "Camera",
            "rotation" : [
                0.483536034822464,
                0.33687159419059753,
                -0.20870360732078552,
                0.7804827094078064
            ],
            "translation" : [
                7.358891487121582,
                4.958309173583984,
                6.925790786743164
            ]
        },
        {
            "mesh" : 0,
            "name" : "Sphere"
        }
    ],
    "materials" : [
        {
            "doubleSided" : true,
            "emissiveFactor" : [
                0,
                0,
                0
            ],
            "name" : "Shell",
            "pbrMetallicRoughness" : {
                "baseColorFactor" : [
                    0.023504406213760376,
                    0.023504406213760376,
                    0.023504406213760376,
                    1
                ],
                "metallicFactor" : 0.699999988079071,
                "roughnessFactor" : 0.4399999976158142
            }
        }
    ],
    "meshes" : [
        {
            "name" : "Sphere.002",
            "primitives" : [
                {
                    "attributes" : {
                        "POSITION" : 0,
                        "NORMAL" : 1,
                        "TEXCOORD_0" : 2
                    },
                    "indices" : 3,
                    "material" : 0
                }
            ]
        }
    ],
    "accessors" : [
        {
            "bufferView" : 0,
            "componentType" : 5126,
            "count" : 3968,
            "max" : [
                0.19999998807907104,
                0.20000000298023224,
                0.19999997317790985
            ],
            "min" : [
                -0.19999989867210388,
                -0.20000000298023224,
                -0.1999998688697815
            ],
            "type" : "VEC3"
        },
        {
            "bufferView" : 1,
            "componentType" : 5126,
            "count" : 3968,
            "type" : "VEC3"
        },
        {
            "bufferView" : 2,
            "componentType" : 5126,
            "count" : 3968,
            "type" : "VEC2"
        },
        {
            "bufferView" : 3,
            "componentType" : 5123,
            "count" : 5760,
            "type" : "SCALAR"
        }
    ],
    "bufferViews" : [
        {
            "buffer" : 0,
            "byteLength" : 47616,
            "byteOffset" : 0
        },
        {
            "buffer" : 0,
            "byteLength" : 47616,
            "byteOffset" : 47616
        },
        {
            "buffer" : 0,
            "byteLength" : 31744,
            "byteOffset" : 95232
        },
        {
            "buffer" : 0,
            "byteLength" : 11520,
            "byteOffset" : 126976
        }
    ],
    "buffers" : [
        {
            "byteLength" : 138496,
            "uri" : "Shell.bin"
        }
    ]
}
